# This file uses centimeters as units for non-parametric coordinates.

mtllib krat.mtl
g default
v -2.200467 0.047225 2.200467
v 2.200467 0.047225 2.200467
v -2.200467 4.448160 2.200467
v 2.200467 4.448160 2.200467
v -2.200467 4.448160 -2.200467
v 2.200467 4.448160 -2.200467
v -2.200467 0.047225 -2.200467
v 2.200467 0.047225 -2.200467
vt 0.000000 0.000000
vt 1.000000 0.000000
vt 0.000000 1.000000
vt 1.000000 1.000000
vt 0.000000 2.000000
vt 1.000000 2.000000
vt 0.000000 3.000000
vt 1.000000 3.000000
vt 0.000000 4.000000
vt 1.000000 4.000000
vt 2.000000 0.000000
vt 2.000000 1.000000
vt -1.000000 0.000000
vt -1.000000 1.000000
vn 0.000000 0.000000 -1.000000
vn 0.000000 0.000000 -1.000000
vn 0.000000 0.000000 -1.000000
vn 0.000000 0.000000 -1.000000
vn 0.000000 -1.000000 0.000000
vn 0.000000 -1.000000 0.000000
vn 0.000000 -1.000000 0.000000
vn 0.000000 -1.000000 0.000000
vn 0.000000 0.000000 1.000000
vn 0.000000 0.000000 1.000000
vn 0.000000 0.000000 1.000000
vn 0.000000 0.000000 1.000000
vn 0.000000 1.000000 0.000000
vn 0.000000 1.000000 0.000000
vn 0.000000 1.000000 0.000000
vn 0.000000 1.000000 0.000000
vn -1.000000 0.000000 0.000000
vn -1.000000 0.000000 0.000000
vn -1.000000 0.000000 0.000000
vn -1.000000 0.000000 0.000000
vn 1.000000 0.000000 0.000000
vn 1.000000 0.000000 0.000000
vn 1.000000 0.000000 0.000000
vn 1.000000 0.000000 0.000000
g pCube1
usemtl initialShadingGroup
f 1/1/1 3/3/2 2/2/3
f 2/2/3 3/3/2 4/4/4
f 3/3/5 5/5/6 4/4/7
f 4/4/7 5/5/6 6/6/8
f 5/5/9 7/7/10 6/6/11
f 6/6/11 7/7/10 8/8/12
f 7/7/13 1/9/14 8/8/15
f 8/8/15 1/9/14 2/10/16
f 2/2/17 4/4/18 8/11/19
f 8/11/19 4/4/18 6/12/20
f 7/13/21 5/14/22 1/1/23
f 1/1/23 5/14/22 3/3/24
EndGroup
empty